<svg id="Layer_1" data-name="Layer 1" xmlns="http://www.w3.org/2000/svg" xmlns:xlink="http://www.w3.org/1999/xlink" viewBox="0 0 48 48"><defs><style>.cls-1,.cls-3{fill:none;}.cls-2{clip-path:url(#clip-path);}.cls-3{stroke:#cd2127;stroke-miterlimit:10;}.cls-4{fill:#cc201f;}</style><clipPath id="clip-path"><rect class="cls-1" width="48" height="48"/></clipPath></defs><title>social-icon-youtube</title><g class="cls-2"><path class="cls-3" d="M24,47.5A23.5,23.5,0,1,0,.5,24,23.53,23.53,0,0,0,24,47.5Z"/><path class="cls-4" d="M29,23.75,20.6,19.37v8.72L29,23.75m-18.17,2.4v-4.3a2,2,0,0,0,0-.2c0-.52,0-1.05.09-1.58a10.5,10.5,0,0,1,.47-2.69,3.15,3.15,0,0,1,2.44-2.15,9.83,9.83,0,0,1,1.5-.17c1.77-.09,3.53-.2,5.3-.23,2.36,0,4.72,0,7.07,0,2,0,4,.11,6,.31a3.31,3.31,0,0,1,3,2.55c.2.88.28,1.78.39,2.68.06.47.06.95.09,1.42v4.34c0,.08,0,.16,0,.25,0,.53-.05,1.06-.1,1.6a10.22,10.22,0,0,1-.47,2.64,3.16,3.16,0,0,1-2.43,2.13,8.4,8.4,0,0,1-1.33.16c-1.82.09-3.64.21-5.46.24-2.36,0-4.72,0-7.07,0-2,0-4-.11-6-.31a3.33,3.33,0,0,1-3.06-2.73c-.17-.9-.26-1.82-.36-2.73,0-.41-.06-.82-.08-1.24"/></g></svg>