<svg id="Layer_1" data-name="Layer 1" xmlns="http://www.w3.org/2000/svg" xmlns:xlink="http://www.w3.org/1999/xlink" viewBox="0 0 48 48"><defs><style>.cls-1,.cls-3{fill:none;}.cls-2{clip-path:url(#clip-path);}.cls-3{stroke:#3a5a99;stroke-miterlimit:10;}.cls-4{fill:#3a5a99;}</style><clipPath id="clip-path"><rect class="cls-1" width="48" height="48"/></clipPath></defs><title>social-icon-facebook</title><g class="cls-2"><path class="cls-3" d="M24,47.5A23.5,23.5,0,1,0,.5,24,23.53,23.53,0,0,0,24,47.5Z"/><path class="cls-4" d="M26.1,30.29q0,3.37,0,6.75c0,.09,0,.1-.11.1H20.56c-.09,0-.11,0-.11-.11q0-6.74,0-13.48c0-.12,0-.12-.12-.12h-2.6c-.07,0-.1,0-.09-.09q0-2.27,0-4.55c0-.07,0-.09.09-.09h2.64c.08,0,.1,0,.1-.1q0-1.35,0-2.71a9.7,9.7,0,0,1,.27-2.44A4.5,4.5,0,0,1,24.11,10,8.12,8.12,0,0,1,26,9.73c1.08,0,2.15,0,3.23,0h1c.06,0,.08,0,.08.08q0,2.29,0,4.58c0,.07,0,.07-.09.07H27.88a3.2,3.2,0,0,0-1,.13,1,1,0,0,0-.76.86,4.1,4.1,0,0,0-.06.77c0,.81,0,1.61,0,2.42,0,.08,0,.09.09.09h4.07c.1,0,.1,0,.09.11L30.13,21l-.22,2c0,.12,0,.23,0,.35s0,.08-.09.08H26.2c-.08,0-.1,0-.1.1q0,3.38,0,6.76"/></g></svg>