<?xml version="1.0" encoding="utf-8"?>
<!-- Generator: Adobe Illustrator 20.1.0, SVG Export Plug-In . SVG Version: 6.00 Build 0)  -->
<svg version="1.1" id="Layer_1" xmlns="http://www.w3.org/2000/svg" xmlns:xlink="http://www.w3.org/1999/xlink" x="0px" y="0px"
	 width="48px" height="48px" viewBox="0 0 48 48" style="enable-background:new 0 0 48 48;" xml:space="preserve">
<style type="text/css">
	.st0{clip-path:url(#SVGID_2_);fill:#3A5A99;}
	.st1{clip-path:url(#SVGID_2_);fill:#FFFFFF;}
</style>
<g>
	<defs>
		<rect id="SVGID_1_" width="48" height="48"/>
	</defs>
	<clipPath id="SVGID_2_">
		<use xlink:href="#SVGID_1_"  style="overflow:visible;"/>
	</clipPath>
	<path class="st0" d="M24,48c13.3,0,24-10.7,24-24S37.3,0,24,0S0,10.7,0,24S10.7,48,24,48"/>
	<path class="st1" d="M26.1,30.3c0,2.2,0,4.5,0,6.7c0,0.1,0,0.1-0.1,0.1c-1.8,0-3.6,0-5.4,0c-0.1,0-0.1,0-0.1-0.1c0-4.5,0-9,0-13.5
		c0-0.1,0-0.1-0.1-0.1c-0.9,0-1.7,0-2.6,0c-0.1,0-0.1,0-0.1-0.1c0-1.5,0-3,0-4.5c0-0.1,0-0.1,0.1-0.1c0.9,0,1.8,0,2.6,0
		c0.1,0,0.1,0,0.1-0.1c0-0.9,0-1.8,0-2.7c0-0.8,0.1-1.6,0.3-2.4c0.2-0.9,0.6-1.7,1.3-2.3c0.6-0.6,1.3-0.9,2.1-1.1
		c0.6-0.2,1.3-0.3,1.9-0.3c1.1,0,2.2,0,3.2,0c0.3,0,0.7,0,1,0c0.1,0,0.1,0,0.1,0.1c0,1.5,0,3.1,0,4.6c0,0.1,0,0.1-0.1,0.1
		c-0.8,0-1.6,0-2.4,0c-0.3,0-0.6,0-1,0.1c-0.4,0.1-0.7,0.4-0.8,0.9c0,0.3-0.1,0.5-0.1,0.8c0,0.8,0,1.6,0,2.4c0,0.1,0,0.1,0.1,0.1
		c1.4,0,2.7,0,4.1,0c0.1,0,0.1,0,0.1,0.1c-0.1,0.7-0.2,1.5-0.2,2.2c-0.1,0.7-0.1,1.3-0.2,2c0,0.1,0,0.2,0,0.3c0,0.1,0,0.1-0.1,0.1
		c-0.3,0-0.7,0-1,0c-0.9,0-1.7,0-2.6,0c-0.1,0-0.1,0-0.1,0.1C26.1,25.8,26.1,28,26.1,30.3"/>
</g>
</svg>
