<svg id="Layer_1" data-name="Layer 1" xmlns="http://www.w3.org/2000/svg" xmlns:xlink="http://www.w3.org/1999/xlink" viewBox="0 0 48 48"><defs><style>.cls-1,.cls-3{fill:none;}.cls-2{clip-path:url(#clip-path);}.cls-3{stroke:#0e5788;stroke-miterlimit:10;}.cls-4{fill:#125687;}</style><clipPath id="clip-path" transform="translate(-969 -516)"><rect class="cls-1" x="969" y="516" width="48" height="48"/></clipPath></defs><title>1</title><g class="cls-2"><path class="cls-3" d="M993,563.5A23.5,23.5,0,1,0,969.5,540,23.53,23.53,0,0,0,993,563.5Z" transform="translate(-969 -516)"/><path class="cls-4" d="M982,540q0,2.71,0,5.43a5.79,5.79,0,0,0,.13,1.23,5.51,5.51,0,0,0,5.37,4.35c3.64,0,7.28,0,10.93,0a6.07,6.07,0,0,0,1-.08,5.28,5.28,0,0,0,2.72-1.28,5.42,5.42,0,0,0,1.9-4.22q0-5.42,0-10.85a5.67,5.67,0,0,0,0-.66,5.53,5.53,0,0,0-5.44-4.91c-3.64,0-7.27,0-10.91,0a5.54,5.54,0,0,0-4.88,2.8,5.56,5.56,0,0,0-.72,2.87c0,1.77,0,3.55,0,5.32m-2,5.81V534.2c0-.16,0-.32,0-.48a7.23,7.23,0,0,1,.65-2.32,7.53,7.53,0,0,1,3.54-3.62,7.2,7.2,0,0,1,2.48-.72l.5,0h11.67a7.08,7.08,0,0,1,1.85.34,7.51,7.51,0,0,1,4.23,3.4,7.26,7.26,0,0,1,1,3c0,.16,0,.32,0,.48v11.6a.87.87,0,0,0,0,.09,7.26,7.26,0,0,1-.57,2.45,7.52,7.52,0,0,1-3.31,3.71,7.33,7.33,0,0,1-2.83.9l-.49,0H987.22l-.32,0a7.25,7.25,0,0,1-2.46-.65,7.52,7.52,0,0,1-3.51-3.27,7.31,7.31,0,0,1-.87-2.77c0-.16,0-.32,0-.48" transform="translate(-969 -516)"/><path class="cls-4" d="M988,540a5,5,0,1,0,5-5,5,5,0,0,0-5,5m-2,0a7,7,0,1,1,7,7,7,7,0,0,1-7-7" transform="translate(-969 -516)"/><path class="cls-4" d="M1000.5,531a1.5,1.5,0,1,1-1.5,1.49,1.5,1.5,0,0,1,1.5-1.49" transform="translate(-969 -516)"/></g></svg>