<?xml version="1.0" encoding="utf-8"?>
<!-- Generator: Adobe Illustrator 20.1.0, SVG Export Plug-In . SVG Version: 6.00 Build 0)  -->
<svg version="1.1" id="Layer_1" xmlns="http://www.w3.org/2000/svg" xmlns:xlink="http://www.w3.org/1999/xlink" x="0px" y="0px"
	 width="48px" height="48px" viewBox="0 0 48 48" style="enable-background:new 0 0 48 48;" xml:space="preserve">
<style type="text/css">
	.st0{clip-path:url(#SVGID_2_);fill:#CD2127;}
	.st1{clip-path:url(#SVGID_2_);fill:#FFFFFF;}
</style>
<g>
	<defs>
		<rect id="SVGID_1_" width="48" height="48"/>
	</defs>
	<clipPath id="SVGID_2_">
		<use xlink:href="#SVGID_1_"  style="overflow:visible;"/>
	</clipPath>
	<path class="st0" d="M24,48c13.3,0,24-10.7,24-24S37.3,0,24,0S0,10.7,0,24S10.7,48,24,48"/>
	<path class="st1" d="M29,23.7c-2.8-1.5-5.6-2.9-8.4-4.4v8.7C23.4,26.6,26.2,25.2,29,23.7 M10.8,26.1v-4.3c0-0.1,0-0.1,0-0.2
		c0-0.5,0-1.1,0.1-1.6c0.1-0.9,0.2-1.8,0.5-2.7c0.4-1.2,1.2-1.9,2.4-2.1c0.5-0.1,1-0.1,1.5-0.2c1.8-0.1,3.5-0.2,5.3-0.2
		c2.4,0,4.7,0,7.1,0c2,0,4,0.1,6,0.3c1.5,0.1,2.7,1.1,3,2.5c0.2,0.9,0.3,1.8,0.4,2.7c0.1,0.5,0.1,0.9,0.1,1.4v4.3c0,0.1,0,0.2,0,0.2
		c0,0.5-0.1,1.1-0.1,1.6c-0.1,0.9-0.2,1.8-0.5,2.6c-0.4,1.1-1.2,1.9-2.4,2.1c-0.4,0.1-0.9,0.1-1.3,0.2c-1.8,0.1-3.6,0.2-5.5,0.2
		c-2.4,0-4.7,0-7.1,0c-2,0-4-0.1-6-0.3c-1.6-0.2-2.8-1.2-3.1-2.7c-0.2-0.9-0.3-1.8-0.4-2.7C10.8,27,10.8,26.6,10.8,26.1"/>
</g>
</svg>
