<svg id="Layer_1" data-name="Layer 1" xmlns="http://www.w3.org/2000/svg" viewBox="0 0 168 46.91"><defs><style>.cls-1{fill:none}.cls-2{clip-path:url(#clip-path)}.cls-3{fill:#231f20}.cls-4{fill:#1f60ac}.cls-5{fill:#fff}</style><clipPath id="clip-path"><path class="cls-1" d="M0 0h168v46.91H0z"/></clipPath></defs><title>nhs-blood-and-transplant-left</title><path class="cls-2 cls-3" d="M2.45 41.47h1.12c1.11 0 2.45-.27 2.45-1.65C6 38.27 4.76 38 3.57 38H2.45zm0-5.21h1c1 0 2.25-.22 2.25-1.45 0-1.38-1.21-1.48-2.3-1.48h-.95zm-2.38-4.8h4.15c1.53 0 3.83.44 3.83 3a2.65 2.65 0 0 1-2.36 2.65A2.76 2.76 0 0 1 8.4 39.9c0 3-2.69 3.44-4.19 3.44H.07z"/><path class="cls-3" d="M10.31 30.58h2.28v12.76h-2.28z"/><path class="cls-2 cls-3" d="M19 41.77c1.75 0 2.21-1.57 2.21-3s-.72-2.6-2.21-2.6a2.33 2.33 0 0 0-2.2 2.6c0 1.45.46 3 2.2 3m0-7.4A4.39 4.39 0 0 1 23.6 39a4.33 4.33 0 0 1-4.6 4.54A4.33 4.33 0 0 1 14.43 39 4.38 4.38 0 0 1 19 34.37m10.4 7.4c1.75 0 2.21-1.57 2.21-3s-.72-2.6-2.21-2.6a2.33 2.33 0 0 0-2.2 2.6c0 1.45.46 3 2.2 3m0-7.4A4.39 4.39 0 0 1 34 39a4.33 4.33 0 0 1-4.59 4.53A4.33 4.33 0 0 1 24.82 39a4.38 4.38 0 0 1 4.58-4.64m10.12 7.41c1.51 0 2-1.6 2-2.84s-.58-2.79-2-2.79-1.89 1.62-1.89 2.79.43 2.84 1.92 2.84m2.09.58a3.25 3.25 0 0 1-2.69 1.19c-2.69 0-3.68-2.21-3.68-4.61s1-4.56 3.68-4.56a3.12 3.12 0 0 1 2.62 1.23v-5h2.28v12.74h-2.23zM54 41.88a1.94 1.94 0 0 0 1.6-.78 2.91 2.91 0 0 0 .48-1.8h-1c-1 0-2.53.17-2.53 1.51 0 .75.63 1.07 1.45 1.07M51.3 35a7.85 7.85 0 0 1 3-.66c2.67 0 3.78 1.11 3.78 3.69v3.32c0 .65.05 1.28.1 2h-2a10.68 10.68 0 0 1-.1-1.31 3.13 3.13 0 0 1-2.71 1.51 2.79 2.79 0 0 1-3.06-2.6 2.58 2.58 0 0 1 1.5-2.5 7 7 0 0 1 2.94-.51H56c0-1.41-.63-1.89-2-1.89a4.58 4.58 0 0 0-2.71 1zm9.07-.42h2.16v1.19a3.27 3.27 0 0 1 2.87-1.39c2.08 0 3 1.46 3 3.44v5.53h-2.27v-4.69c0-1.07 0-2.52-1.48-2.52-1.65 0-2 1.79-2 2.91v4.29h-2.28zm14.13 7.19c1.51 0 2-1.6 2-2.84s-.58-2.79-2-2.79-1.89 1.62-1.89 2.79.43 2.84 1.92 2.84m2.09.58a3.25 3.25 0 0 1-2.69 1.19c-2.69 0-3.68-2.21-3.68-4.61s1-4.56 3.68-4.56a3.12 3.12 0 0 1 2.62 1.23v-5h2.28v12.74H76.6z"/><path class="cls-3" d="M88.25 33.33h-3.4v-1.87h9.19v1.87h-3.41v10.01h-2.38V33.33z"/><path class="cls-2 cls-3" d="M93.83 34.58h2v2a2.69 2.69 0 0 1 2.4-2.19 2.49 2.49 0 0 1 .7.07v2.3a2.32 2.32 0 0 0-1-.19c-1.85 0-1.85 2.31-1.85 3.57v3.22h-2.25zm9.63 7.3a1.94 1.94 0 0 0 1.6-.78 2.91 2.91 0 0 0 .48-1.8h-1c-1 0-2.53.17-2.53 1.51 0 .75.63 1.07 1.45 1.07M100.79 35a7.85 7.85 0 0 1 3-.66c2.67 0 3.78 1.11 3.78 3.69v3.32c0 .65.05 1.28.1 2h-2a10.68 10.68 0 0 1-.1-1.31 3.13 3.13 0 0 1-2.71 1.51 2.8 2.8 0 0 1-3.06-2.6 2.58 2.58 0 0 1 1.5-2.5 7 7 0 0 1 2.94-.51h1.26c0-1.41-.63-1.89-2-1.89a4.58 4.58 0 0 0-2.71 1zm9.07-.42H112v1.19a3.27 3.27 0 0 1 2.88-1.39c2.08 0 3 1.46 3 3.44v5.53h-2.28v-4.69c0-1.07 0-2.52-1.48-2.52-1.65 0-2 1.79-2 2.91v4.29h-2.28zm15.6 1.83a5.6 5.6 0 0 0-2-.37c-.61 0-1.34.22-1.34 1 0 1.4 4 .51 4 3.68 0 2-1.82 2.86-3.68 2.86a10.23 10.23 0 0 1-2.59-.37l.14-1.87a5 5 0 0 0 2.25.58c.58 0 1.5-.22 1.5-1.07 0-1.72-4-.54-4-3.71 0-1.89 1.65-2.72 3.44-2.72a10.44 10.44 0 0 1 2.48.32zm4.65 2.52c0 1.24.49 2.84 2 2.84s1.89-1.63 1.89-2.84-.41-2.79-1.89-2.79-2 1.57-2 2.79m-2.3-4.36H130v1.24a3 3 0 0 1 2.72-1.45c2.69 0 3.68 2.14 3.68 4.56s-1 4.61-3.73 4.61a3 3 0 0 1-2.57-1.21v4.58h-2.28z"/><path class="cls-3" d="M138.26 30.58h2.28v12.76h-2.28z"/><path class="cls-2 cls-3" d="M146 41.88a1.94 1.94 0 0 0 1.6-.78 2.91 2.91 0 0 0 .48-1.8h-1c-1 0-2.54.17-2.54 1.51 0 .75.63 1.07 1.45 1.07M143.33 35a7.85 7.85 0 0 1 3-.66c2.67 0 3.78 1.11 3.78 3.69v3.32c0 .65.05 1.28.1 2h-2a10.68 10.68 0 0 1-.1-1.31 3.13 3.13 0 0 1-2.71 1.51 2.8 2.8 0 0 1-3.06-2.6 2.58 2.58 0 0 1 1.5-2.5 7 7 0 0 1 2.94-.51h1.26c0-1.41-.63-1.89-2-1.89a4.58 4.58 0 0 0-2.71 1zm9.07-.42h2.16v1.19a3.27 3.27 0 0 1 2.88-1.39c2.08 0 3 1.46 3 3.44v5.53h-2.28v-4.69c0-1.07 0-2.52-1.48-2.52-1.65 0-2 1.79-2 2.91v4.29h-2.28zm11.14 1.66h-1.68v-1.66h1.68v-1.76l2.28-.73v2.48h2v1.67h-2v4.08c0 .75.2 1.45 1.07 1.45a2 2 0 0 0 1-.24l.07 1.8a6 6 0 0 1-1.68.2 2.58 2.58 0 0 1-2.77-2.84z"/><path class="cls-4" d="M0 0h59.89v24.24H0z"/><path class="cls-5" d="M5.86 2.34h6.51l3.99 13.53h.06l2.74-13.53h4.92l-4.14 19.51h-6.48L9.38 8.35h-.06l-2.71 13.5H1.69L5.86 2.34zm20.15 0h5.22L29.7 9.8h6.17l1.54-7.46h5.22l-4.05 19.51h-5.22l1.73-8.36h-6.18l-1.73 8.36h-5.23l4.06-19.51z"/><path class="cls-2 cls-5" d="M56.38 6.76a9.82 9.82 0 0 0-4.3-.89c-2.07 0-3.74.3-3.74 1.87 0 2.76 7.57 1.73 7.57 7.66 0 5.39-5 6.79-9.53 6.79a21.78 21.78 0 0 1-6-1l1.23-4a10.16 10.16 0 0 0 4.81 1.12c1.62 0 4.16-.31 4.16-2.32 0-3.13-7.57-2-7.57-7.46C43 3.51 47.39 2 51.66 2a15.87 15.87 0 0 1 6 .87z"/></svg>