<?xml version="1.0" encoding="utf-8"?>
<!-- Generator: Adobe Illustrator 20.1.0, SVG Export Plug-In . SVG Version: 6.00 Build 0)  -->
<svg version="1.1" id="Layer_1" xmlns="http://www.w3.org/2000/svg" xmlns:xlink="http://www.w3.org/1999/xlink" x="0px" y="0px"
	 width="48px" height="48px" viewBox="0 0 48 48" style="enable-background:new 0 0 48 48;" xml:space="preserve">
<style type="text/css">
	.st0{clip-path:url(#SVGID_2_);fill:#25A9E0;}
	.st1{clip-path:url(#SVGID_2_);fill:#FFFFFF;}
</style>
<g>
	<defs>
		<rect id="SVGID_1_" width="48" height="48"/>
	</defs>
	<clipPath id="SVGID_2_">
		<use xlink:href="#SVGID_1_"  style="overflow:visible;"/>
	</clipPath>
	<path class="st0" d="M24,48c13.3,0,24-10.7,24-24S37.3,0,24,0S0,10.7,0,24S10.7,48,24,48"/>
	<path class="st1" d="M28.6,13h1c0,0,0,0,0.1,0c1.3,0.1,2.4,0.7,3.3,1.6c0.1,0.1,0.1,0.1,0.2,0.1c1.1-0.2,2.2-0.7,3.2-1.2
		c0,0,0.1-0.1,0.1-0.1c-0.4,1.3-1.2,2.3-2.3,3c0.8-0.1,1.5-0.3,2.2-0.5c0.3-0.1,0.6-0.2,0.8-0.3v0c0,0,0,0-0.1,0.1
		c-0.7,1-1.5,1.9-2.5,2.7c-0.1,0.1-0.1,0.1-0.1,0.2c0,1.3-0.1,2.6-0.4,3.9c-0.7,3.2-2.2,5.9-4.5,8.2c-1,1-2.2,1.9-3.5,2.5
		c-2.1,1.1-4.4,1.6-6.7,1.7c-0.9,0-1.8,0-2.7-0.2c-2.1-0.3-4-1.1-5.8-2.2c0,0-0.1,0-0.1-0.1c1.4,0.2,2.8,0.1,4.2-0.3
		c1.4-0.4,2.6-1,3.7-1.9c0,0-0.1,0-0.1,0c-0.5,0-1.1-0.1-1.6-0.3c-1.6-0.6-2.7-1.7-3.3-3.4c0-0.1,0-0.1,0.1-0.1
		c0.6,0.1,1.2,0.1,1.8,0c0.2,0,0.3-0.1,0.5-0.1c-0.1,0-0.1,0-0.1,0c-1.1-0.3-2-0.8-2.7-1.6c-1-1.1-1.4-2.3-1.5-3.7
		c0-0.1,0-0.1,0.1-0.1c0.7,0.4,1.4,0.6,2.2,0.6c0,0,0.1,0,0.1,0c-0.3-0.2-0.6-0.5-0.9-0.8c-0.9-1-1.4-2.2-1.5-3.5
		c-0.1-1.1,0.2-2.1,0.7-3c0-0.1,0.1-0.1,0.1,0c0.4,0.5,0.8,0.9,1.2,1.3c1.2,1.2,2.6,2.2,4.1,2.9c1.8,0.9,3.7,1.4,5.7,1.5
		c0.1,0,0.1-0.1,0.1-0.1c-0.1-0.7-0.2-1.4,0-2.1c0.4-2.3,2.1-4,4.4-4.5C28.2,13.1,28.4,13.1,28.6,13"/>
</g>
</svg>
