<svg id="Layer_1" data-name="Layer 1" xmlns="http://www.w3.org/2000/svg" xmlns:xlink="http://www.w3.org/1999/xlink" viewBox="0 0 48 48"><defs><style>.cls-1,.cls-3{fill:none;}.cls-2{clip-path:url(#clip-path);}.cls-3{stroke:#25a9e0;stroke-miterlimit:10;}.cls-4{fill:#25a9e0;}</style><clipPath id="clip-path"><rect class="cls-1" width="48" height="48"/></clipPath></defs><title>social-icon-twitter</title><g class="cls-2"><path class="cls-3" d="M24,47.5A23.5,23.5,0,1,0,.5,24,23.53,23.53,0,0,0,24,47.5Z"/><path class="cls-4" d="M28.56,13h1s0,0,.06,0a5.32,5.32,0,0,1,3.35,1.64.19.19,0,0,0,.2.06,10.79,10.79,0,0,0,3.17-1.23.2.2,0,0,1,.14-.05,5.63,5.63,0,0,1-2.31,3A10,10,0,0,0,36.36,16l.83-.32v0s0,0-.06.07a11.06,11.06,0,0,1-2.53,2.68.24.24,0,0,0-.1.22,15.37,15.37,0,0,1-.35,3.92,16.34,16.34,0,0,1-4.47,8.2,14.28,14.28,0,0,1-3.48,2.54,15.4,15.4,0,0,1-15.3-.72s-.07,0-.08-.08a10.75,10.75,0,0,0,7.94-2.27s-.05,0-.07,0a5.08,5.08,0,0,1-1.6-.31,5.45,5.45,0,0,1-3.32-3.4c0-.13,0-.14.07-.12a5.15,5.15,0,0,0,1.77,0,2.47,2.47,0,0,0,.52-.12l-.11,0a5.28,5.28,0,0,1-2.73-1.61,5.48,5.48,0,0,1-1.46-3.74c0-.1,0-.12.11-.07a5.22,5.22,0,0,0,2.2.63s.06,0,.08,0a5.3,5.3,0,0,1-.86-.75,5.51,5.51,0,0,1-1.48-3.51,5.58,5.58,0,0,1,.67-3c0-.08.07-.09.13,0a15,15,0,0,0,1.2,1.32A15.33,15.33,0,0,0,18,18.33a15.11,15.11,0,0,0,5.71,1.49c.13,0,.1-.05.08-.12a5.61,5.61,0,0,1,0-2.09,5.48,5.48,0,0,1,4.37-4.49,2.93,2.93,0,0,0,.47-.09"/></g></svg>